<svg width="140" height="143" viewBox="0 0 140 143" fill="none" xmlns="http://www.w3.org/2000/svg">
<g clip-path="url(#clip0_5_105)">
<path fill-rule="evenodd" clip-rule="evenodd" d="M138.249 50.1336C133.653 35.6161 124.451 22.992 112.037 14.1736C99.6222 5.35515 84.6722 0.822923 69.451 1.26346C54.2298 1.704 39.5668 7.09329 27.6833 16.6149C15.7999 26.1366 7.34345 39.2718 3.59495 54.0308C-0.15356 68.7898 1.01016 84.3683 6.90984 98.4066C12.8095 112.445 23.1237 124.178 36.29 131.828C49.4562 139.479 64.7571 142.63 79.8748 140.804C94.9925 138.978 109.103 132.275 120.07 121.71H120.1L120.669 121.14C123.42 118.377 124.962 114.636 124.958 110.737C124.954 106.839 123.403 103.101 120.646 100.344C117.89 97.5876 114.152 96.0369 110.253 96.0326C106.355 96.0282 102.613 97.5705 99.8506 100.321V100.311C94.2153 105.826 87.0944 109.579 79.3593 111.11C71.6243 112.641 63.6108 111.884 56.2993 108.932C48.9879 105.979 42.6957 100.959 38.1931 94.4859C33.6904 88.0129 31.1724 80.3675 30.9473 72.4856C30.7223 64.6037 32.7999 56.8272 36.9259 50.1077C41.0519 43.3883 47.0474 38.0174 54.1785 34.6524C61.3095 31.2874 69.2668 30.0743 77.0766 31.1616C84.8864 32.2488 92.2099 35.5893 98.1507 40.774L100.121 42.7539C101.041 43.6869 101.555 44.9462 101.551 46.2569C101.547 47.5676 101.024 48.8234 100.097 49.7503C99.1705 50.6771 97.9147 51.1997 96.6039 51.2041C95.2932 51.2085 94.0339 50.6942 93.1009 49.7736L90.3711 47.0337L90.2711 47.1337C90.2277 47.0118 90.1556 46.9021 90.061 46.8137C85.4259 43.3037 79.8905 41.1801 74.097 40.6894C68.3036 40.1988 62.4898 41.3612 57.3304 44.0418C52.171 46.7224 47.8776 50.8112 44.9485 55.8336C42.0193 60.8561 40.5747 66.6062 40.782 72.4167C40.9894 78.2272 42.8404 83.8598 46.1201 88.6606C49.3999 93.4615 53.9738 97.2338 59.3111 99.5397C64.6485 101.846 70.5304 102.591 76.2741 101.688C82.0179 100.786 87.388 98.2729 91.761 94.4413C92.5844 93.5215 93.0362 92.3283 93.0288 91.0938C93.0214 89.8593 92.5553 88.6716 91.721 87.7617C89.7511 85.6318 86.3813 86.1918 84.7113 87.5617C81.6667 90.0379 77.9869 91.6076 74.0924 92.0917C70.1979 92.5757 66.2457 91.9544 62.6876 90.2988C59.1294 88.6432 56.1087 86.0201 53.9706 82.7292C51.8325 79.4383 50.6633 75.6123 50.5965 71.6884C50.5297 67.7645 51.5681 63.901 53.5929 60.5392C55.6178 57.1774 58.5474 54.453 62.0472 52.6773C65.547 50.9016 69.4757 50.1462 73.3844 50.4974C77.2931 50.8486 81.0243 52.2922 84.1514 54.6633L84.1813 54.6433L85.9513 56.4133C88.7142 59.1638 92.4553 60.7061 96.3539 60.7018C100.253 60.6974 103.99 59.1467 106.747 56.39C109.504 53.6333 111.054 49.8956 111.059 45.997C111.063 42.0983 109.521 38.3572 106.77 35.5943L106.55 35.3743C106.516 35.217 106.44 35.0718 106.33 34.9543C99.1673 28.0999 90.1407 23.5119 80.3816 21.7652C70.6225 20.0186 60.5649 21.1909 51.4691 25.1355C42.3734 29.08 34.644 35.6211 29.2497 43.9394C23.8553 52.2576 21.036 61.9828 21.1447 71.8964C21.2535 81.81 24.2855 91.471 29.8611 99.6689C35.4366 107.867 43.3077 114.237 52.4877 117.981C61.6678 121.725 71.7487 122.676 81.4671 120.716C91.1856 118.756 100.109 113.971 107.12 106.961C107.135 106.926 107.152 106.893 107.17 106.861C108.073 106.017 109.259 105.541 110.495 105.527C111.731 105.513 112.927 105.962 113.848 106.786C114.77 107.609 115.35 108.748 115.474 109.978C115.598 111.207 115.258 112.439 114.52 113.43C105.389 122.757 93.4715 128.862 80.5668 130.822C67.6621 132.782 54.4699 130.492 42.9809 124.297C31.4919 118.102 22.3293 108.339 16.8758 96.4798C11.4223 84.6209 9.97363 71.3101 12.7485 58.5557C15.5234 45.8013 22.3713 34.2955 32.2588 25.7743C42.1463 17.2531 54.5371 12.1788 67.5613 11.3172C80.5856 10.4556 93.5367 13.8534 104.461 20.9979C115.384 28.1423 123.688 38.6459 128.119 50.9235C128.849 52.9534 130.559 55.9133 134.049 55.6933C134.724 55.6925 135.39 55.5354 135.994 55.2342C136.598 54.9331 137.124 54.496 137.531 53.9574C137.938 53.4188 138.214 52.7932 138.339 52.1298C138.463 51.4664 138.433 50.7831 138.249 50.1336Z" stroke="white" stroke-width="1.9999" stroke-miterlimit="10" stroke-linecap="round" stroke-linejoin="round"/>
</g>
<defs>
<clipPath id="clip0_5_105">
<rect width="138.922" height="142" fill="white" transform="translate(0.515625 0.3125)"/>
</clipPath>
</defs>
</svg>
