<svg width="141" height="123" viewBox="0 0 141 123" fill="none" xmlns="http://www.w3.org/2000/svg">
<g clip-path="url(#clip0_5_114)">
<path d="M116.898 101.962C116.908 101.952 116.908 101.932 116.918 101.922C116.938 101.892 116.951 101.858 116.958 101.822C116.968 101.792 116.978 101.752 116.988 101.722C116.997 101.69 117 101.656 116.998 101.622C116.998 101.602 117.008 101.592 117.008 101.572C117.008 101.552 116.998 101.542 116.998 101.522C116.998 101.502 116.988 101.452 116.988 101.422C116.988 101.392 116.968 101.352 116.958 101.322C116.948 101.288 116.934 101.255 116.918 101.222C116.908 101.212 116.908 101.192 116.898 101.182L105.682 81.7573H128.104C128.226 81.7536 128.346 81.7228 128.454 81.6674C128.484 81.6474 128.504 81.6274 128.534 81.6074C128.615 81.5566 128.683 81.4882 128.734 81.4074C128.744 81.3874 128.764 81.3774 128.784 81.3574L140.14 61.6925C140.15 61.6825 140.15 61.6625 140.16 61.6525C140.179 61.6219 140.193 61.588 140.2 61.5525C140.21 61.5225 140.22 61.4825 140.23 61.4525C140.238 61.4199 140.242 61.3862 140.24 61.3526C140.24 61.3326 140.25 61.3226 140.25 61.3026C140.25 61.2826 140.24 61.2726 140.24 61.2526C140.24 61.2326 140.23 61.1826 140.23 61.1526C140.23 61.1226 140.21 61.0826 140.2 61.0526C140.189 61.0183 140.176 60.9849 140.16 60.9527C140.15 60.9427 140.15 60.9227 140.14 60.9127L128.784 41.2477C128.767 41.2223 128.747 41.1989 128.724 41.1777C128.693 41.1329 128.656 41.0926 128.614 41.0578C128.572 41.0255 128.529 40.9954 128.484 40.9678C128.444 40.9419 128.4 40.9217 128.354 40.9078C128.303 40.8882 128.249 40.8781 128.194 40.8778C128.164 40.8778 128.134 40.8578 128.104 40.8578H105.682L116.898 21.4328C116.908 21.4228 116.908 21.4028 116.918 21.3928C116.938 21.3622 116.951 21.3283 116.958 21.2928C116.968 21.2628 116.978 21.2229 116.988 21.1929C116.997 21.1602 117 21.1265 116.998 21.0929C116.998 21.0729 117.008 21.0629 117.008 21.0429C117.008 21.0229 116.998 21.0129 116.998 20.9929C116.998 20.9729 116.988 20.9229 116.988 20.8929C116.988 20.8629 116.968 20.823 116.958 20.793C116.948 20.7587 116.934 20.7252 116.918 20.693C116.908 20.683 116.908 20.663 116.898 20.653L105.552 0.988045C105.535 0.962659 105.515 0.9392 105.492 0.918063C105.462 0.875693 105.429 0.835596 105.392 0.798093C105.351 0.765778 105.307 0.735743 105.262 0.708117C105.222 0.682191 105.178 0.662002 105.132 0.648132C105.081 0.628558 105.027 0.618396 104.972 0.61814C104.942 0.61814 104.913 0.598145 104.883 0.598145H82.1806C82.1606 0.598145 82.1506 0.608142 82.1306 0.608142C82.1106 0.608142 82.0606 0.61814 82.0306 0.61814L81.9207 0.648132C81.889 0.657192 81.8586 0.670653 81.8306 0.688122C81.8189 0.696073 81.8048 0.699615 81.7907 0.698119L81.7607 0.728111C81.7323 0.745622 81.7055 0.765701 81.6808 0.788096C81.6516 0.812178 81.6248 0.838956 81.6007 0.868076C81.5807 0.898068 81.5608 0.918063 81.5408 0.948055C81.5285 0.959448 81.5183 0.973 81.5108 0.988045L70.2948 20.4131L59.0788 0.988045C59.0613 0.962659 59.0411 0.9392 59.0187 0.918063C58.9848 0.87563 58.9481 0.835547 58.9088 0.798093C58.8712 0.768019 58.831 0.741259 58.7888 0.718114C58.7485 0.692188 58.7048 0.672 58.6589 0.65813C58.6081 0.63767 58.5537 0.627477 58.4989 0.628138C58.4689 0.628138 58.4389 0.608142 58.409 0.608142H35.707C35.687 0.608142 35.677 0.61814 35.657 0.61814C35.637 0.61814 35.587 0.628138 35.557 0.628138L35.4471 0.65813C35.4154 0.667189 35.385 0.68065 35.357 0.698119C35.3453 0.706071 35.3312 0.709613 35.3171 0.708117C35.3057 0.720466 35.2921 0.73063 35.2771 0.738109C35.2487 0.75562 35.2219 0.775698 35.1972 0.798093C35.1681 0.822174 35.1412 0.848954 35.1171 0.878073C35.0971 0.908066 35.0772 0.928061 35.0572 0.958053C35.0449 0.969445 35.0347 0.982998 35.0272 0.998043L23.6812 20.663C23.6668 20.6913 23.6566 20.7217 23.6512 20.753C23.6301 20.8014 23.6133 20.8516 23.6012 20.9029C23.5878 21.0025 23.5878 21.1033 23.6012 21.2029C23.6133 21.2542 23.6301 21.3044 23.6512 21.3528C23.6566 21.3841 23.6668 21.4145 23.6812 21.4428L34.8972 40.8678H12.4752C12.4552 40.8678 12.4452 40.8778 12.4252 40.8778C12.4052 40.8778 12.3552 40.8878 12.3252 40.8878L12.2153 40.9178C12.1836 40.9269 12.1532 40.9403 12.1252 40.9578C12.1152 40.9678 12.0953 40.9678 12.0853 40.9778L12.0553 41.0078C12.0269 41.0253 12.0002 41.0454 11.9754 41.0678C11.9463 41.0919 11.9194 41.1186 11.8953 41.1478C11.8753 41.1777 11.8554 41.1977 11.8354 41.2277C11.8231 41.2391 11.8129 41.2527 11.8054 41.2677L0.44943 60.9327C0.434992 60.961 0.424853 60.9913 0.419412 61.0227C0.39828 61.071 0.381503 61.1212 0.36938 61.1726C0.35604 61.2721 0.35604 61.373 0.36938 61.4725C0.381503 61.5239 0.39828 61.5741 0.419412 61.6225C0.424853 61.6538 0.434992 61.6842 0.44943 61.7125L11.8054 81.3774L11.8354 81.4074C11.8556 81.4397 11.879 81.4699 11.9053 81.4974C11.9453 81.5374 11.9853 81.5674 12.0253 81.6074C12.0553 81.6274 12.0654 81.6574 12.0953 81.6674C12.1071 81.6753 12.1212 81.6789 12.1352 81.6774C12.2438 81.7328 12.3633 81.7636 12.4851 81.7673H34.9072L23.7012 101.192C23.6868 101.221 23.6767 101.251 23.6712 101.282C23.6501 101.331 23.6333 101.381 23.6212 101.432C23.6078 101.532 23.6078 101.633 23.6212 101.732C23.6333 101.784 23.6501 101.834 23.6712 101.882C23.6767 101.913 23.6868 101.944 23.7012 101.972L35.0472 121.637L35.0772 121.667C35.0974 121.699 35.1208 121.73 35.1471 121.757C35.1871 121.797 35.2271 121.827 35.2671 121.867C35.2971 121.887 35.3072 121.917 35.3371 121.927C35.3489 121.935 35.363 121.939 35.377 121.937C35.4856 121.993 35.6051 122.023 35.7269 122.027H58.429C58.5508 122.023 58.6703 121.993 58.7788 121.937C58.8088 121.917 58.8288 121.897 58.8587 121.877C58.9395 121.826 59.008 121.758 59.0587 121.677C59.0687 121.657 59.0887 121.647 59.1087 121.627L70.3248 102.202L81.5408 121.627L81.5708 121.657C81.591 121.689 81.6144 121.72 81.6407 121.747C81.6807 121.787 81.7207 121.817 81.7607 121.857C81.7907 121.877 81.8006 121.907 81.8306 121.917C81.8423 121.925 81.8566 121.929 81.8706 121.927C81.9792 121.983 82.0987 122.013 82.2205 122.017H104.923C105.044 122.013 105.164 121.983 105.272 121.927C105.302 121.907 105.322 121.887 105.352 121.867C105.433 121.816 105.502 121.748 105.552 121.667C105.562 121.647 105.582 121.637 105.602 121.617L116.898 101.962ZM104.413 120.447H83.5201L93.9663 102.352H114.859L104.413 120.447ZM57.9291 120.447H37.0365L59.3786 81.7573H80.2712L57.9291 120.447ZM13.7947 80.1777L24.241 62.0824H68.9153L58.4689 80.1777H13.7947ZM12.4352 43.2072L22.8815 61.3026L12.4352 79.3979L1.9888 61.3026L12.4352 43.2072ZM25.2306 21.0329L35.677 2.93754L58.0191 41.6276L47.5728 59.723L25.2306 21.0329ZM82.1706 2.94754L92.6169 21.0429L70.2848 59.733L59.8384 41.6376L82.1706 2.94754ZM104.413 2.15775L114.859 20.2531H93.9663L83.5201 2.15775H104.413ZM127.665 42.4274L138.111 60.5228H93.4366L82.9902 42.4274H127.665ZM81.6207 43.2072L91.6072 60.5128H71.6243L81.6207 43.2072ZM68.9153 60.5128H48.9323L58.9188 43.2072L68.9153 60.5128ZM70.2748 62.8722L80.2612 80.1777H60.2783L70.2748 62.8722ZM71.6343 62.0924H92.5169L114.849 100.782H93.9563L71.6343 62.0924ZM94.3362 62.0924H138.101L127.655 80.1877H104.773L94.3362 62.0924ZM82.9902 40.8478L93.9764 21.8227H114.869L103.883 40.8478H82.9902ZM58.9188 40.068L37.0365 2.15775H57.9291L69.3751 21.9727L58.9188 40.068ZM46.2033 60.5128H24.231L13.7847 42.4174H35.7569L46.2033 60.5128ZM57.5593 81.7573L35.677 119.668L25.2306 101.572L36.6666 81.7573H57.5593ZM81.6207 82.5371L92.6068 101.562L82.1606 119.658L71.1745 100.623L81.6207 82.5371Z" fill="white"/>
</g>
<defs>
<clipPath id="clip0_5_114">
<rect width="139.891" height="121.438" fill="white" transform="translate(0.359375 0.59375)"/>
</clipPath>
</defs>
</svg>
